<?xml version="1.0" encoding="utf-8"?>
<!-- Generator: Adobe Illustrator 15.1.0, SVG Export Plug-In . SVG Version: 6.00 Build 0)  -->
<!DOCTYPE svg PUBLIC "-//W3C//DTD SVG 1.1//EN" "http://www.w3.org/Graphics/SVG/1.1/DTD/svg11.dtd">
<svg version="1.1" id="Layer_1" xmlns="http://www.w3.org/2000/svg" xmlns:xlink="http://www.w3.org/1999/xlink" x="0px" y="0px"
	 width="146.75px" height="146.753px" viewBox="-2.075 0 146.75 146.753" enable-background="new -2.075 0 146.75 146.753"
	 xml:space="preserve">
<path fill="#010101" d="M142.594,90.734l-0.131-0.133h0.131c-0.063-3.283-0.62-6.449-1.589-9.426
	c-1.683-5.168-4.618-9.77-8.46-13.439c-2.865-2.73-6.211-4.947-9.915-6.498c-0.273-0.119-0.559-0.229-0.838-0.338
	c-3.49-1.35-7.259-2.115-11.211-2.176c-0.171-0.006-0.35-0.006-0.518-0.006c-1.996,0-3.946,0.186-5.851,0.529
	c-0.664,0.125-1.332,0.264-1.984,0.426c-2.826,0.707-5.509,1.775-7.987,3.162c-1.18,0.367-3.89,2.176-5.015,3.078
	c-1.093,0.881-1.825,1.402-2.46,1.789l-0.38-0.389c5.824-4.832,11.011-11.375,14.347-18.436c1.068-2.268,1.954-4.594,2.604-6.928
	c0.816-2.949,1.268-5.922,1.268-8.842c0-0.125,0-0.254,0-0.389l0.016-0.023l-0.016-0.021c-0.04-2.688-0.397-5.295-1.029-7.787
	c-1.248-4.875-3.576-9.32-6.712-13.057c-0.645-0.762-1.314-1.498-2.021-2.197c-1.745-1.734-3.684-3.277-5.779-4.59
	c-0.695-0.436-1.409-0.852-2.14-1.238c-4.489-2.369-9.588-3.732-14.993-3.801C71.784,0.006,71.638,0,71.485,0
	c-0.062,0-0.124,0-0.188,0.006l0,0C71.235,0,71.175,0,71.111,0c-0.179,0-0.353,0.006-0.531,0.008
	c-5.383,0.084-10.45,1.451-14.91,3.807c-2.546,1.344-4.894,3.008-6.994,4.941c-1.037,0.957-2.017,1.984-2.927,3.072
	c-0.767,0.91-1.484,1.861-2.149,2.852c-2.065,3.076-3.628,6.514-4.576,10.205c-0.62,2.469-0.979,5.045-1.016,7.699
	c-0.008,0.174-0.011,0.352-0.011,0.525c0,0.523,0.014,1.041,0.042,1.568c0.131,2.406,0.551,4.844,1.224,7.266
	c0.646,2.332,1.525,4.656,2.604,6.918c3.333,7.07,8.523,13.621,14.357,18.455l-0.389,0.387c-0.639-0.387-1.373-0.908-2.464-1.789
	c-1.122-0.902-3.834-2.711-5.012-3.078c-2.483-1.387-5.167-2.455-7.992-3.162c-0.494-0.123-0.99-0.232-1.5-0.33
	c-2.047-0.408-4.159-0.625-6.333-0.625c-0.182,0-0.361,0-0.534,0.006c-4.168,0.07-8.15,0.918-11.787,2.416
	c-2.106,0.857-4.104,1.936-5.963,3.199c-1.494,1.02-2.895,2.154-4.194,3.396c-3.752,3.582-6.642,8.055-8.341,13.068
	c-1.047,3.088-1.645,6.381-1.711,9.797c0,0.043,0,0.076,0,0.115C0.005,90.896,0,91.08,0,91.255c0,1.72,0.133,3.408,0.385,5.056
	c1.083,6.897,4.324,13.08,9.016,17.821c2.227,2.25,4.778,4.181,7.577,5.711c1.065,0.578,2.157,1.097,3.286,1.558
	c2.286,0.937,4.711,1.61,7.223,2.002c1.646,0.257,3.332,0.394,5.05,0.394c1.559,0,3.093-0.109,4.579-0.322
	c0.536-0.078,1.06-0.162,1.583-0.264c1.47-0.283,2.897-0.664,4.286-1.137c5.01-1.705,9.475-4.605,13.056-8.353
	c0.966-1.017,1.869-2.095,2.704-3.226l0.018,0.019c0,0,0.137-0.212,0.378-0.543c0.167-0.25,0.347-0.49,0.518-0.738
	c0.854-1.207,2.235-3.097,3.709-4.938c0.36-0.457,0.734-0.914,1.11-1.355c-0.561,2.314-2.034,8.313-3.984,15.23
	c-3.088,10.908-7.348,24.094-11.032,28.586h43.684c-3.679-4.492-7.947-17.676-11.027-28.586c-1.59-5.633-2.871-10.67-3.586-13.59
	c-0.167-0.654-0.301-1.211-0.403-1.642c0.313,0.369,0.619,0.739,0.924,1.125c1.55,1.916,3.007,3.912,3.897,5.17
	c0.168,0.248,0.347,0.488,0.521,0.738c0.238,0.331,0.377,0.543,0.377,0.543l0.021-0.019c0.833,1.131,1.734,2.209,2.695,3.226
	c3.541,3.702,7.944,6.581,12.888,8.297c1.443,0.5,2.93,0.897,4.466,1.19c1.984,0.385,4.045,0.586,6.152,0.586
	c0.027,0,0.057,0,0.099,0c2.021-0.004,4.005-0.201,5.927-0.557c1.671-0.316,3.31-0.758,4.876-1.314
	c1.627-0.582,3.197-1.287,4.695-2.104c2.785-1.523,5.32-3.445,7.537-5.688c4.347-4.391,7.448-10.018,8.737-16.297
	c0.438-2.123,0.664-4.326,0.664-6.58C142.6,91.085,142.6,90.91,142.594,90.734z"/>
</svg>
