<?xml version="1.0" encoding="utf-8"?>
<!-- Generator: Adobe Illustrator 15.1.0, SVG Export Plug-In . SVG Version: 6.00 Build 0)  -->
<!DOCTYPE svg PUBLIC "-//W3C//DTD SVG 1.1//EN" "http://www.w3.org/Graphics/SVG/1.1/DTD/svg11.dtd">
<svg version="1.1" id="Layer_1" xmlns="http://www.w3.org/2000/svg" xmlns:xlink="http://www.w3.org/1999/xlink" x="0px" y="0px"
	 width="155.25px" height="155.246px" viewBox="-14.014 0 155.25 155.246" enable-background="new -14.014 0 155.25 155.246"
	 xml:space="preserve">
<polygon fill="#BE2026" points="113.85,61.432 112.308,59.552 110.061,56.806 108.967,55.471 107.369,53.516 98.504,42.688 
	98.362,42.516 92.293,35.104 90.399,32.788 88.47,30.43 63.621,0.076 63.555,0 63.555,0.034 63.551,0.018 63.543,0 63.324,0.268 
	37.337,32.007 34.807,35.104 34.01,36.078 28.733,42.519 28.596,42.688 23.451,48.976 21.597,51.239 17.036,56.806 14.854,59.475 
	12.84,61.936 1.006,76.39 0,77.62 0.881,78.701 12.84,93.306 14.863,95.779 17.036,98.437 26.853,110.419 28.596,112.556 
	28.733,112.726 30.189,114.503 34.807,120.142 63.543,155.246 63.543,155.208 63.551,155.228 63.555,155.246 63.642,155.134 
	127.222,77.62 "/>
</svg>
