<?xml version="1.0" encoding="utf-8"?>
<!-- Generator: Adobe Illustrator 15.1.0, SVG Export Plug-In . SVG Version: 6.00 Build 0)  -->
<!DOCTYPE svg PUBLIC "-//W3C//DTD SVG 1.1//EN" "http://www.w3.org/Graphics/SVG/1.1/DTD/svg11.dtd">
<svg version="1.1" id="Layer_1" xmlns="http://www.w3.org/2000/svg" xmlns:xlink="http://www.w3.org/1999/xlink" x="0px" y="0px"
	 width="152.24px" height="152.24px" viewBox="0 -9.559 152.24 152.24" enable-background="new 0 -9.559 152.24 152.24"
	 xml:space="preserve">
<path fill="#BE2026" d="M76.229,15.75l-0.03,0.037c0.006-0.006,0.009-0.012,0.015-0.016L76.229,15.75z M82.992,8.513l-0.023,0.02
	c0,0,0.005,0,0.011-0.005L82.992,8.513z M152.185,20.373l-0.033-0.075l0.027,0.069C152.185,20.368,152.185,20.373,152.185,20.373z
	 M142.796,7.406l-0.068-0.063l0.063,0.059L142.796,7.406z M79.426,133.122l0.034-0.041l-0.021,0.025L79.426,133.122z M58.263,1.125
	l-0.05-0.022c0.006,0.002,0.012,0.007,0.018,0.011L58.263,1.125z M130.635,83.827l0.013-0.014l-0.013,0.01
	C130.635,83.827,130.635,83.827,130.635,83.827z M151.349,28.405c-0.52-2.34-1.258-4.576-2.197-6.691
	c-0.434-0.982-0.914-1.939-1.43-2.867c-0.422-0.747-0.859-1.477-1.326-2.184c-1.648-2.51-3.61-4.792-5.828-6.799
	c-2.871-2.611-6.187-4.762-9.83-6.382c-0.008-0.005-0.012-0.005-0.014-0.007c-0.158-0.068-0.312-0.136-0.473-0.201
	c-3.336-1.437-6.936-2.425-10.718-2.891c-1.787-0.229-3.503-0.347-5.169-0.377c-6.397-0.105-11.958,1.133-16.73,3.111
	c-0.748,0.313-1.488,0.645-2.199,0.989c-4.018,1.946-7.433,4.399-10.264,6.913c-2.6,2.322-4.71,4.703-6.352,6.806
	c-1.115,1.44-2.016,2.747-2.702,3.826c-0.613-0.962-1.409-2.122-2.367-3.389c-1.619-2.133-3.74-4.573-6.387-6.974
	C64.472,8.67,60.95,6.107,56.77,4.091c-0.805-0.393-1.641-0.765-2.5-1.11C49.562,1.082,44.106-0.1,37.857,0.005
	c-1.658,0.03-3.372,0.148-5.152,0.377c-3.635,0.458-7.098,1.382-10.327,2.72c-0.296,0.123-0.589,0.252-0.872,0.38
	c-0.063,0.024-0.124,0.054-0.182,0.077c-2.771,1.252-5.348,2.816-7.69,4.653c-0.155,0.12-0.31,0.247-0.459,0.37
	c-3.889,3.15-7.087,7.073-9.357,11.586c-0.446,0.893-0.86,1.8-1.239,2.74c-1.984,4.971-2.902,10.553-2.476,16.536
	C0.182,40.612,0.316,41.8,0.5,43.001c0.688,4.394,2.084,8.981,4.306,13.679c1.892,4.007,4.378,8.094,7.516,12.215
	c2.222,2.906,4.765,5.832,7.653,8.759c0.605,0.614,1.229,1.226,1.861,1.835c0.289,0.288,0.604,0.575,0.897,0.858
	c0.368,0.351,0.745,0.69,1.124,1.042c1.491,1.359,2.93,2.688,4.335,3.984c2.656,2.432,5.16,4.754,7.538,6.963
	c0.65,0.606,1.298,1.209,1.932,1.797c0.694,0.648,1.38,1.289,2.051,1.908c6.84,6.389,12.458,11.746,17.058,16.188
	c0.061,0.055,0.112,0.109,0.163,0.16c0.337,0.324,0.663,0.646,0.996,0.963c13.54,13.127,17.637,17.877,17.637,17.877
	s0.093,0.096,0.229,0.18c0.098,0.041,0.206,0.086,0.322,0.082c0.318,0.012,0.551-0.262,0.551-0.262s0.102-0.119,0.321-0.359
	c1.182-1.32,5.886-6.432,17.321-17.518c0.371-0.357,0.737-0.719,1.123-1.086c0.056-0.059,0.112-0.117,0.168-0.168
	c5.035-4.859,11.271-10.791,18.976-17.965c4.166-3.879,8.757-8.114,13.807-12.744c0.373-0.352,0.744-0.691,1.115-1.042
	c0.222-0.201,0.431-0.409,0.646-0.61c0.726-0.691,1.43-1.385,2.109-2.076c0.438-0.443,0.876-0.891,1.307-1.342
	c2.885-3.035,5.407-6.068,7.573-9.07c2.58-3.568,4.664-7.096,6.308-10.567c3.226-6.84,4.727-13.443,4.795-19.577
	C152.276,34.079,151.966,31.168,151.349,28.405z"/>
</svg>
