<?xml version="1.0" encoding="utf-8"?>
<!-- Generator: Adobe Illustrator 15.1.0, SVG Export Plug-In . SVG Version: 6.00 Build 0)  -->
<!DOCTYPE svg PUBLIC "-//W3C//DTD SVG 1.1//EN" "http://www.w3.org/Graphics/SVG/1.1/DTD/svg11.dtd">
<svg version="1.1" id="Layer_1" xmlns="http://www.w3.org/2000/svg" xmlns:xlink="http://www.w3.org/1999/xlink" x="0px" y="0px"
	 width="152.5px" height="152.496px" viewBox="-1.199 0 152.5 152.496" enable-background="new -1.199 0 152.5 152.496"
	 xml:space="preserve">
<path fill="#010101" d="M146.627,74.168c-0.058-0.146-0.118-0.294-0.185-0.441c-2.757-6.417-7.152-13.083-13.488-19.783
	c-1.053-1.108-2.165-2.224-3.323-3.335c-0.979-0.941-1.997-1.876-3.048-2.814c-4.944-4.378-9.432-8.392-13.514-12.067
	c-9.235-8.323-16.354-14.899-21.779-20.014C82.935,7.831,78.608,3.426,76.749,1.482c-0.806-0.843-1.146-1.231-1.146-1.231
	S75.361-0.013,75.05,0l0,0c-0.309-0.014-0.547,0.25-0.547,0.25s-0.435,0.494-1.502,1.595c-2.127,2.217-6.797,6.925-15.535,15.131
	c-5.24,4.92-11.938,11.101-20.434,18.751c-4.08,3.675-8.568,7.688-13.507,12.067c-1.271,1.121-2.479,2.253-3.637,3.37
	c-0.985,0.972-1.946,1.938-2.86,2.911c-6.178,6.553-10.5,13.08-13.244,19.367c-0.039,0.096-0.082,0.187-0.125,0.285
	c-3.028,7.05-4.069,13.798-3.518,19.96c0.116,1.309,0.307,2.595,0.565,3.852c0.172,0.855,0.385,1.7,0.615,2.538
	c0.052,0.146,0.095,0.295,0.132,0.438c2.876,9.495,9.793,17.024,18.879,21.215c0.328,0.15,0.674,0.299,1.012,0.443
	c0.17,0.075,0.353,0.151,0.533,0.223c1.074,0.444,2.172,0.832,3.302,1.182c0.506,0.154,1.016,0.299,1.524,0.438
	c1.797,0.476,3.648,0.836,5.543,1.063c4.527,0.545,8.67,0.438,12.461-0.136c4.357-0.661,8.242-1.954,11.663-3.6
	c3.518-1.688,6.544-3.744,9.115-5.887c-0.082,0.297-0.173,0.605-0.262,0.916c-3.15,11.014-9.23,30.503-14.295,36.125h48.243
	c-0.098-0.111-0.19-0.211-0.282-0.324c-5.037-6.05-11.001-25.223-14.072-36.005c-0.065-0.245-0.136-0.479-0.2-0.712
	c2.545,2.118,5.544,4.162,9.017,5.842c4.247,2.057,9.21,3.568,14.911,4.012c2.906,0.22,6.009,0.172,9.308-0.231
	c1.513-0.187,2.987-0.446,4.426-0.789c0.277-0.06,0.538-0.129,0.806-0.19c0.076-0.021,0.148-0.043,0.225-0.06
	c0.543-0.146,1.089-0.295,1.624-0.461c0.737-0.226,1.467-0.479,2.183-0.742c5.711-2.133,10.693-5.519,14.548-9.862
	c0.383-0.425,0.753-0.867,1.114-1.313c1.019-1.273,1.942-2.619,2.766-4.031c1.565-2.668,2.765-5.572,3.533-8.678
	C150.92,91.583,150.376,83.125,146.627,74.168z"/>
</svg>
